<?xml version="1.0" encoding="UTF-8"?>
<svg xmlns="http://www.w3.org/2000/svg" viewBox="0 0 189.14 203.59">
  <title>logo-alt</title>
  <path d="M119.7,193.67h-5V181.26a7.45,7.45,0,0,0-7.44-7.44H99.85v19.85h-5V168.86H107.3a12.41,12.41,0,0,1,12.4,12.4Z" fill="#304a6e"/>
  <path d="M62.63,168.86a12.41,12.41,0,1,0,7.45,22.32v2.49h5V168.86Zm0,19.85a7.45,7.45,0,0,1,0-14.89h7.45v7.44A7.46,7.46,0,0,1,62.63,188.71Z" fill="#4f8f9d"/>
  <path d="M152.67,168.86a12.41,12.41,0,1,0,7.44,22.32v2.49h5V168.86Zm0,19.85a7.45,7.45,0,1,1,0-14.89h7.44v7.44A7.45,7.45,0,0,1,152.67,188.71Z" fill="#304a6e"/>
  <path d="M122.18,203.59v-5a7.45,7.45,0,0,0,7.45-7.44V168.86h5v22.33A12.41,12.41,0,0,1,122.18,203.59Z" fill="#304a6e"/>
  <rect x="129.63" y="158.93" width="4.96" height="4.96" fill="#304a6e"/>
  <rect x="82.48" y="168.86" width="4.96" height="24.81" fill="#4f8f9d"/>
  <rect x="82.48" y="158.93" width="4.96" height="4.96" fill="#4f8f9d"/>
  <path d="M47.8,169.92a12.41,12.41,0,0,0-12.46,1.42v-2.48h-5v24.81h5V181.26a7.45,7.45,0,0,1,12.37-5.58l.09-.11Z" fill="#304a6e"/>
  <path d="M184.22,168.86a12.37,12.37,0,0,0-7.45,2.48v-2.48h-5v24.81h5V181.26a7.45,7.45,0,0,1,12.37-5.58v-5.81A12.52,12.52,0,0,0,184.22,168.86Z" fill="#304a6e"/>
  <path d="M12.7,168.26A12.67,12.67,0,0,0,5,170.9v-12H0v22.33H0a12.71,12.71,0,1,0,12.7-13Zm0,20.45A7.75,7.75,0,1,1,20.45,181,7.75,7.75,0,0,1,12.7,188.71Z" fill="#304a6e"/>
  <path d="M93.85,70.39A2.06,2.06,0,0,1,92.59,70l-1.87,9.19a1.88,1.88,0,0,1,.53-.07,2.06,2.06,0,0,1,1.26.43l1.86-9.19A2.18,2.18,0,0,1,93.85,70.39Z" fill="#304a6e"/>
  <path d="M80.35,93.65l4,8.79a2.08,2.08,0,0,1,1.64-.8l-4-8.75a2.09,2.09,0,0,1-1.61.76Z" fill="#304a6e"/>
  <path d="M78.3,91.6l-7.54,3.85a2,2,0,0,1,.83,1.62l7.54-3.85A2.11,2.11,0,0,1,78.3,91.6Z" fill="#304a6e"/>
  <path d="M81.12,72.9a2.08,2.08,0,0,1-1.07,1.48l9.13,6.45a2.12,2.12,0,0,1,1-1.49Z" fill="#304a6e"/>
  <path d="M68.79,83.75l9.53-9.26a2.09,2.09,0,0,1-1.26-1.32l-9.54,9.27A2.09,2.09,0,0,1,68.79,83.75Z" fill="#304a6e"/>
  <path d="M65.08,85.6l-4.51,8.06a2.06,2.06,0,0,1,1.55,1l4.56-8.13A2.11,2.11,0,0,1,65.08,85.6Z" fill="#304a6e"/>
  <path d="M105.41,79.39l-5.23,8.77a2.05,2.05,0,0,1,1.48,1.08L107,80.33A2.14,2.14,0,0,1,105.41,79.39Z" fill="#304a6e"/>
  <path d="M79.06,70.44a2.08,2.08,0,0,1,1.5.63L81.82,59.6a2.08,2.08,0,0,1-.66.11A2.05,2.05,0,0,1,80,59.36l-1.22,11.1Z" fill="#304a6e"/>
  <path d="M101.35,61.8h-.18l4.3,14.05-9.56-7.15a2.1,2.1,0,0,1-1.09,1.46l10.29,7.69a2.08,2.08,0,0,1,2-1.69l.32,0L103.27,62.4l10,8.45a2.1,2.1,0,0,1,1.18-1.4L103.4,60.13A2.09,2.09,0,0,1,101.35,61.8Z" fill="#304a6e"/>
  <path d="M115.05,91.86l-6.22-12.35a2.1,2.1,0,0,1-1.63.82l6.31,12.53A2.11,2.11,0,0,1,115.05,91.86Z" fill="#304a6e"/>
  <path d="M93.22,81.87a2.13,2.13,0,0,1-1.3,1.29l6,6.1a2.08,2.08,0,0,1,1.48-1.1Z" fill="#304a6e"/>
  <path d="M117.1,72.45a2.09,2.09,0,0,1-1.53,1l3.82,5.9-10.13-1.68,5.2-4.39a2,2,0,0,1-1.17-1.39L108,76.33a2.08,2.08,0,0,1,.86,3.12l10.4,1.72a2,2,0,0,1-.09-.59A2.1,2.1,0,0,1,121,78.5Z" fill="#304a6e"/>
  <path d="M121.28,82.67a2.11,2.11,0,0,1-1.59-.72l-4.27,9.9a2.08,2.08,0,0,1,1.61.88l4.34-10.06Z" fill="#304a6e"/>
  <path d="M60.14,93.66l-5-10.1a2.09,2.09,0,0,1-1.62.84l5,10.23A2.11,2.11,0,0,1,60.14,93.66Z" fill="#304a6e"/>
  <path d="M67.52,97.8a2.26,2.26,0,0,1-.11-.69A2,2,0,0,1,67.74,96l-5.32-.63a2.43,2.43,0,0,1,0,.38,2.09,2.09,0,0,1-.53,1.4Z" fill="#304a6e"/>
  <path d="M84,104.12l-7.91,4.39a2.08,2.08,0,0,1,1,1.55l8-4.46A2.1,2.1,0,0,1,84,104.12Z" fill="#304a6e"/>
  <path d="M80.61,71.13a2.07,2.07,0,0,1,.55,1.41c0,.11,0,.23,0,.34l11.16-3.19a2.09,2.09,0,0,1-.53-1.4,2.19,2.19,0,0,1,0-.36Z" fill="#304a6e"/>
  <path d="M89.25,81.82l-8.12,7.77a2.14,2.14,0,0,1,1.26,1.32l8.12-7.77A2.14,2.14,0,0,1,89.25,81.82Z" fill="#304a6e"/>
  <path d="M113.22,93.93a2.09,2.09,0,0,1,.22-.93L101.9,90.14v.08a2.12,2.12,0,0,1-.76,1.62L112,94.53l-5.61,1.84L99,101.72l1.52-9.52a2.08,2.08,0,0,1-2.54-1.07L87,101.86a2.09,2.09,0,0,1,.84,3l8-.17a2.05,2.05,0,0,1-.23-1,2.09,2.09,0,0,1,.19-.87l-7.38.15,10.08-9.87-1.37,8.57a2.09,2.09,0,0,1,2.64,1.68L107.25,98l7-2.3A2.1,2.1,0,0,1,113.22,93.93Z" fill="#304a6e"/>
  <path d="M74.9,108.18l-3.85-9.66a2.12,2.12,0,0,1-1.55.69h-.15L73.27,109A2.1,2.1,0,0,1,74.9,108.18Z" fill="#304a6e"/>
  <path d="M95.79,67.49l5.1-5.74a2.11,2.11,0,0,1-1.43-1.14l-5,5.67A2.09,2.09,0,0,1,95.79,67.49Z" fill="#304a6e"/>
  <path d="M79.15,89.87l-10.26-5.4A2.08,2.08,0,0,1,68,86.09L78.3,91.48A2.11,2.11,0,0,1,79.15,89.87Z" fill="#304a6e"/>
  <path d="M55.23,81.11,62,69.84c1.83,7.3,2.81,11.07,3.38,13a2.09,2.09,0,0,1,1.43-.57l.31,0c-.79-2.86-2.32-8.82-3.45-13.32a2.1,2.1,0,0,1-3-.57L53.63,80.22A2.11,2.11,0,0,1,55.23,81.11Z" fill="#304a6e"/>
  <path d="M63.68,65.6a2.08,2.08,0,0,1,.3,3.12l13,4a1.09,1.09,0,0,1,0-.18A2.07,2.07,0,0,1,77.63,71L64.81,67.07l14.87-8a2.09,2.09,0,0,1-.62-1.48,2.45,2.45,0,0,1,0-.27Z" fill="#304a6e"/>
  <path d="M83,56.56a2.09,2.09,0,0,1,.28,1,2.11,2.11,0,0,1-1,1.8l9.6,8.34A2.07,2.07,0,0,1,93,66.37l-9-7.84,15.37,1.84a2.08,2.08,0,0,1-.11-.66,2,2,0,0,1,.34-1.15Z" fill="#304a6e"/>
  <path d="M87.37,138.85v-10.1a45.44,45.44,0,0,0,45.44-45.44V40.39h10.1V83.31a55.55,55.55,0,0,1-55.54,55.54Z" fill="#304a6e"/>
  <path d="M126.64,44a55.63,55.63,0,0,0-84.71,7.31V0H31.83V83.31A55.18,55.18,0,0,0,48.1,122.58c.65.66,1.32,1.3,2,1.91s1.38,1.22,2.09,1.8l1.07.86a55.09,55.09,0,0,0,34.11,11.7h0v-10.1h0a45.65,45.65,0,0,1-10-1.1c-.73-.16-1.44-.34-2.16-.54A45.53,45.53,0,0,1,42.05,86.7q-.12-1.68-.12-3.39a45.44,45.44,0,0,1,90.88,0v-32A56.86,56.86,0,0,0,126.64,44Z" fill="#4f8f9d"/>
</svg>